<?xml version="1.0" standalone="no"?><!DOCTYPE svg PUBLIC "-//W3C//DTD SVG 1.1//EN" "http://www.w3.org/Graphics/SVG/1.1/DTD/svg11.dtd"><svg class="icon" height="512" viewBox="0 0 1024 1024" version="1.1" xmlns="http://www.w3.org/2000/svg"><path d="M307.5 268.3h302.2c9 0 16.4 7.4 16.4 16.4 0 9-7.3 16.4-16.4 16.4H307.5c-9 0-16.4-7.3-16.4-16.4 0-9.1 7.3-16.4 16.4-16.4z m0 88h302.2c9 0 16.4 7.4 16.4 16.4 0 9-7.3 16.4-16.4 16.4H307.5c-9 0-16.4-7.3-16.4-16.4 0-9 7.3-16.4 16.4-16.4z m0 93.5h302.2c9 0 16.4 7.4 16.4 16.4 0 9-7.3 16.4-16.4 16.4H307.5c-9 0-16.4-7.4-16.4-16.4 0-9 7.3-16.4 16.4-16.4z m0 93.5h170.4l-1.5 1.2-22.1 22-2 2.4c-1.9 2.3-3.6 4.7-5.2 7.1H307.5c-9 0-16.4-7.4-16.4-16.4 0-8.9 7.3-16.3 16.4-16.3z m0 93.5h126.9c1.1 6.7 2.9 13.3 5.5 19.6-8 3.3-15.4 7.7-22 13.1H307.5c-9 0-16.4-7.3-16.4-16.4 0-8.9 7.3-16.2 16.4-16.3z m76.2-468.9v-46.1c0-2.9 1.6-5.7 4-7.7 2.8-2.3 6.8-3.8 11.2-3.8h119.2c4.4 0 8.4 1.5 11.2 3.8h0.1c2.4 2 4 4.8 4 7.7v46.1H383.7zM195 876.3h238c-1.2-13.9 0.9-28.1 6.4-41.3-15.3-6.4-28.4-17-37.8-30.3h-172V167.9h101.6V96.3H195c-21.9 0-39.8 17.9-39.8 39.8v700.4c0 21.9 17.9 39.8 39.8 39.8zM761.9 526V136.1c0-21.9-17.9-39.8-39.8-39.8H586v71.6h101.6v312.2c26.1 7.1 47.3 26.1 57.5 50.9 5.5-2.3 11.1-3.9 16.8-5zM399 97c-7.6 0-14.6 2.6-19.7 6.8-5.5 4.5-8.9 10.8-8.9 17.9v32.1c0 7 3.4 13.4 8.9 17.9 5.1 4.2 12.1 6.8 19.7 6.8h119.2c7.6 0 14.6-2.6 19.7-6.8 5.4-4.5 8.9-10.9 8.9-17.9v-32.1c0-7-3.4-13.4-8.9-17.9-5.1-4.2-12-6.9-19.7-6.9H399v0.1z m141.1-33.1h-163c-9.2 0-17.6 3.1-23.5 8-5.6 4.6-9.1 11-9.1 17.8v100.8c0 6.8 3.5 13.1 9.1 17.8 5.9 4.9 14.3 8 23.5 8h163c9.2 0 17.6-3.1 23.5-8 5.6-4.7 9.1-11 9.1-17.8V89.7c0-6.8-3.5-13.2-9.1-17.8-6-4.9-14.3-8-23.5-8zM798.5 903.9c-8.3 0-15.1-6.7-15.1-15s6.7-15 15.1-15c8.3 0 15 6.7 15 15s-6.7 15-15 15z m23-34.5l-85.6-85c5.5-11.6 8.5-24.5 8.5-38.1 0-49.2-39.9-89.2-89.1-89.2-8.3 0-16.2 1.1-23.8 3.2l38 38c15.8 15.8 14.7 42.4-2.5 59.6-17.1 17.1-43.8 18.3-59.6 2.5l-38-38c-2.1 7.6-3.3 15.6-3.3 23.8 0 49.2 39.9 89.1 89.1 89.1 13.6 0 26.6-3 38.1-8.5l85.7 85c10.7 10.7 28.9 9.9 40.7-1.8 11.7-11.6 12.5-29.8 1.8-40.6zM842 706.8h-28.9c-4.2-0.5-8.1-1.9-11.5-4.1-0.1-0.1-0.2-0.2-0.4-0.3-7.2-4.7-11.9-13-11.9-22.2 0-2.9 0.5-5.8 1.4-8.3 1-3 2.5-5.8 4.4-8.2l4.5-4.4 10.1-10 6.1-6.1c8.7-11.3 8.6-27.2-0.4-38.5L797.7 587c-11.2-8.9-27.1-9.1-38.5-0.5l-6.1 6-14.4 14.3c-7.9 6.2-18.5 7.4-27.4 3.6-3-1.3-5.7-3.2-8.2-5.7-4.4-4.4-6.9-10-7.6-15.7v-20.5l0.1-8.7c-2-14.1-13.2-25.3-27.5-26.9l-25-0.1c-14.3 1.6-25.6 12.7-27.6 26.8v28.8c-0.1 0.7-0.2 1.4-0.3 2.2v0.2c-0.2 0.7-0.4 1.5-0.6 2.3l-0.1 0.1c-0.2 0.8-0.5 1.5-0.8 2.2v0.1c-0.3 0.7-0.6 1.5-1 2.1-1.6 3.1-3.8 5.8-6.5 8-4.7 4-10.7 6.4-17.3 6.4-6.2 0-11.9-2.2-16.5-5.8l-4.5-4.5-10-10.1-6.1-6.1c-11.4-8.7-27.3-8.6-38.5 0.3l-17.7 17.6c-9 11.2-9.2 27.1-0.6 38.5l6.1 6.2 14.3 14.4c0.3 0.4 0.5 0.7 0.8 1 0.3 0.3 0.5 0.7 0.7 1 0.3 0.4 0.4 0.7 0.7 1.1l0.6 0.9c0.3 0.5 0.4 1 0.7 1.5 0.1 0.2 0.2 0.5 0.4 0.7 0.2 0.5 0.4 1.1 0.6 1.5 0 0.3 0.2 0.5 0.2 0.7 0.2 0.7 0.4 1.5 0.6 2.3 0.2 0.8 0.3 1.6 0.4 2.3 1 7.9-1.5 16.2-7.6 22.3-4.4 4.5-10 6.9-15.7 7.6h-29.1c-14.2 2-25.4 13.2-27 27.5l-0.1 25c1.6 14.3 12.7 25.7 26.8 27.6h8.7l20.2 0.1c0.8 0.1 1.7 0.2 2.5 0.4 0.2 0 0.4 0.2 0.6 0.2 0.6 0.1 1.2 0.3 1.7 0.5 11 3.4 18.9 13.5 18.9 25.5 0 6.2-2.2 12-5.8 16.5l-4.5 4.4-10 10-6.1 6.1c-8.7 11.3-8.6 27.2 0.4 38.5l17.6 17.7c11.2 9 27.1 9.2 38.5 0.6l6.1-6.1 14.4-14.3c0.1 0 0.3-0.1 0.4-0.2 0.6-0.5 1.1-0.9 1.7-1.2 0.2-0.2 0.5-0.3 0.8-0.5 0.5-0.2 0.9-0.5 1.3-0.8 0.5-0.2 1-0.5 1.5-0.7 0.2 0 0.5-0.2 0.7-0.3 0.7-0.2 1.4-0.5 2.1-0.8h0.1c0.7-0.2 1.4-0.4 2.2-0.5h0.2c0.7-0.2 1.4-0.2 2.1-0.3 0.1 0 0.2-0.1 0.3-0.1 0.7-0.1 1.3-0.1 2-0.2 7.3-0.4 14.7 2.3 20.3 7.8 4.4 4.5 6.9 10 7.6 15.8v29.1c1.9 14.2 13.2 25.3 27.5 27l25 0.1c14.3-1.6 25.7-12.7 27.6-26.9v-28.8c0.6-5 2.5-9.6 5.5-13.4 0.2-0.4 0.5-0.6 0.8-0.9 0.3-0.3 0.5-0.6 0.8-0.9 1.6-1.7 3.5-3.2 5.5-4.5 0.6-0.2 1.1-0.6 1.6-0.9 0.2-0.1 0.3-0.2 0.5-0.2 0.2-0.1 0.3-0.2 0.4-0.2 0.5-0.3 1-0.4 1.5-0.6l-23.9-23.7c-10.4 3-21.3 4.6-32.6 4.6-64.9-0.3-117.1-52.8-116.9-117.4 0.1-64.6 52.7-116.9 117.3-116.7 64.6 0.2 116.9 52.8 116.6 117.3 0 11-1.6 21.6-4.5 31.8l23.8 23.6c1.3-2.8 3.1-5.3 5.3-7.6 2.6-2.6 5.7-4.4 8.8-5.7 2.2-0.9 4.5-1.6 6.9-1.9h29.1c14.2-1.9 25.3-13.2 27-27.5v-25c-1.3-14.2-12.4-25.6-26.5-27.5z" /></svg>